<?xml version="1.0" encoding="utf-8"?>
<!-- Generator: Adobe Illustrator 16.0.0, SVG Export Plug-In . SVG Version: 6.00 Build 0)  -->
<!DOCTYPE svg PUBLIC "-//W3C//DTD SVG 1.1//EN" "http://www.w3.org/Graphics/SVG/1.1/DTD/svg11.dtd">
<svg version="1.1" id="圖層_1" xmlns="http://www.w3.org/2000/svg" xmlns:xlink="http://www.w3.org/1999/xlink" x="0px" y="0px"
	 width="512px" height="512px" viewBox="0 0 512 512" enable-background="new 0 0 512 512" xml:space="preserve">
<g>
	<path fill="#FFFFFF" d="M256,101.752C170.809,101.75,101.746,170.809,101.744,256c-0.002,85.191,69.057,154.254,154.248,154.256
		s154.254-69.057,154.256-154.248c0-0.002,0-0.005,0-0.008C410.164,170.846,341.154,101.836,256,101.752z M256,396.252
		c-77.459,0-140.252-62.793-140.252-140.252S178.541,115.748,256,115.748S396.252,178.541,396.252,256
		C396.171,333.425,333.426,396.171,256,396.252z"/>
	<path fill="#FFFFFF" d="M211.972,258.984c-12.469,0-22.576,10.107-22.576,22.576c0,12.468,10.107,22.575,22.576,22.575
		c12.468,0,22.575-10.107,22.575-22.575l0,0C234.535,269.098,224.435,258.997,211.972,258.984z M211.972,290.132
		c-4.736,0-8.576-3.839-8.576-8.575s3.84-8.576,8.576-8.576s8.575,3.84,8.575,8.576c0,0.001,0,0.002,0,0.004
		C220.544,286.294,216.706,290.13,211.972,290.132L211.972,290.132z"/>
	<path fill="#FFFFFF" d="M336.896,177.676c-6.776-11.736-19.236-19.072-35.084-20.66c-16.164-1.235-32.313,2.582-46.212,10.924
		c-11.729,6.658-21.616,16.129-28.772,27.56c-19.713,0.943-37.566,11.924-47.3,29.092c-2.762,4.971-4.76,10.328-5.928,15.892
		c-1.213,4.604-4.427,8.421-8.756,10.4c-6.387,3.186-11.672,8.212-15.177,14.429c-11.852,21.472,2,51.924,30.9,67.875
		c10.82,6.112,23.006,9.403,35.432,9.568c16.8,0,31.42-6.764,38.488-19.563c2.39-4.353,3.812-9.169,4.168-14.12
		c0.211-4.432,2.286-8.566,5.712-11.385c1.707-1.318,3.34-2.732,4.888-4.235l11.553,20c5.513,9.531,17.702,12.799,27.244,7.304
		l53.72-31.016c9.539-5.51,12.808-17.708,7.3-27.248l-29.32-50.8C343.641,200.458,342.604,188.104,336.896,177.676z
		 M255.836,286.572c-6.589,5.237-10.644,13.026-11.155,21.428c-0.208,2.955-1.051,5.829-2.473,8.428
		c-8,14.469-33.116,16.54-54.88,4.524c-21.764-12.017-33.399-34.4-25.408-48.856c2.145-3.785,5.388-6.83,9.301-8.731
		c8.103-3.897,14.01-11.249,16.071-20c0.885-4.193,2.396-8.229,4.484-11.972c7.749-13.683,22.275-22.123,38-22.08h0.191
		c0.347,0.046,0.695,0.066,1.045,0.06c6.29,0.151,12.468,1.707,18.079,4.552c21.235,10.806,29.689,36.779,18.884,58.014
		c-0.916,1.799-1.957,3.533-3.115,5.187l-0.092,0.12C262.283,280.79,259.271,283.936,255.836,286.572z M356.924,269.496
		c1.641,2.844,0.669,6.479-2.172,8.124l-53.72,31.012c-2.84,1.643-6.474,0.672-8.115-2.168c-0.002-0.003-0.003-0.006-0.005-0.008
		L278.564,281.6c0.312-0.523,0.668-1.02,0.968-1.556l0,0c15.26-27.646,5.219-62.427-22.427-77.687
		c-0.544-0.3-1.092-0.591-1.646-0.874c-3.993-2.015-8.214-3.542-12.571-4.548c5.459-6.812,12.151-12.535,19.728-16.872
		c11.354-6.875,24.561-10.061,37.8-9.116c11.244,1.124,19.893,6,24.353,13.728c4.063,7.888,4.343,17.191,0.76,25.308
		c-0.741,1.963-0.563,4.154,0.484,5.972L356.924,269.496z"/>
	<path fill="#FFFFFF" d="M468.377,105.796c-24.083,0.026-43.6,19.542-43.629,43.624v29.752c0.017,12.558,8.485,23.53,20.629,26.728
		v177.328c0,12.703,10.297,23,23,23c12.702,0,23-10.297,23-23l0,0V205.9c12.143-3.198,20.609-14.171,20.623-26.728V149.42
		C511.971,125.339,492.457,105.825,468.377,105.796z M498,179.172c-0.009,7.521-6.103,13.615-13.623,13.624c-3.866,0-7,3.134-7,7
		v183.432c0,4.971-4.03,9-9,9c-4.971,0-9-4.029-9-9l0,0V199.796c-0.003-3.865-3.136-6.998-7-7
		c-7.522-0.006-13.619-6.102-13.629-13.624V149.42c0.191-16.362,13.609-29.472,29.972-29.281
		c16.093,0.187,29.094,13.188,29.28,29.281V179.172z"/>
	<path fill="#FFFFFF" d="M67.764,105.824L67.764,105.824c-9.995,0.703-17.69,9.106-17.513,19.124v34.976
		c0.09,3.66-2.804,6.699-6.463,6.789S37.09,163.909,37,160.25c-0.002-0.108-0.002-0.217,0-0.326v-34.976
		c0.178-10.02-7.52-18.424-17.516-19.124c-5.077-0.293-10.047,1.539-13.72,5.056c-3.673,3.497-5.756,8.345-5.765,13.416v54.876
		c0.015,12.557,8.481,23.53,20.624,26.728v177.328c0,12.703,10.298,23,23,23c12.703,0,23-10.297,23-23l0,0V205.9
		c12.144-3.198,20.612-14.17,20.628-26.728v-54.876c-0.001-10.217-8.284-18.499-18.501-18.498
		C68.422,105.798,68.093,105.807,67.764,105.824z M73.252,179.172c-0.006,7.524-6.104,13.622-13.628,13.628
		c-3.865,0.002-6.998,3.135-7,7v183.428c0,4.971-4.029,9-9,9s-9-4.029-9-9V199.796c0-3.866-3.134-7-7-7
		c-7.521-0.009-13.615-6.103-13.624-13.624v-54.876c0.003-2.486,2.019-4.5,4.504-4.5h0.248c2.525,0.378,4.358,2.601,4.248,5.152
		v34.976c-0.158,11.392,8.947,20.755,20.339,20.914s20.755-8.947,20.913-20.339c0.003-0.191,0.003-0.383,0-0.575v-34.976
		c-0.105-2.547,1.724-4.765,4.244-5.144c2.481-0.142,4.607,1.755,4.749,4.236c0.005,0.085,0.007,0.17,0.007,0.255V179.172z"/>
</g>
</svg>
